<svg width="172" height="29" viewBox="0 0 172 29" fill="none" xmlns="http://www.w3.org/2000/svg">
<path d="M0.287109 23.0599C0.287109 22.3639 0.503109 22.0159 0.935109 22.0159C1.19911 22.0159 1.91911 22.6159 3.09511 23.8159C3.55111 24.2479 4.10311 24.6559 4.75111 25.0399C5.39911 25.3999 6.03511 25.5799 6.65911 25.5799C7.45111 25.5799 8.17111 24.7519 8.81911 23.0959C9.49111 21.4159 10.4151 18.4399 11.5911 14.1679C12.7671 9.87193 13.7151 7.13593 14.4351 5.95992C13.3791 6.12793 11.8911 6.43993 9.97111 6.89593C8.07511 7.35193 6.93511 7.57992 6.55111 7.57992C5.66311 7.57992 5.21911 7.27993 5.21911 6.67993C5.21911 5.86392 6.70711 5.03592 9.68311 4.19592C12.6831 3.35592 14.8791 2.93592 16.2711 2.93592C16.7031 2.93592 17.0751 3.03192 17.3871 3.22392C17.7231 3.41593 17.8911 3.70393 17.8911 4.08792C17.8911 4.44792 17.7231 5.11992 17.3871 6.10392C15.8991 10.4479 14.9271 13.3999 14.4711 14.9599C12.9111 20.6479 11.7231 24.3319 10.9071 26.0119C10.0911 27.6919 8.86711 28.5319 7.23511 28.5319C5.62711 28.5319 4.06711 27.8599 2.55511 26.5159C1.04311 25.1719 0.287109 24.0199 0.287109 23.0599Z" fill="white"/>
<path d="M26.811 10.6039C27.891 10.6039 28.887 11.1559 29.799 12.2599C30.711 13.3399 31.167 14.3239 31.167 15.2119C31.167 16.0759 30.867 16.9639 30.267 17.8759C30.555 18.2359 30.699 18.5479 30.699 18.8119C30.699 19.4839 30.543 20.6359 30.231 22.2679C29.943 23.8999 29.763 24.9679 29.691 25.4719C29.643 25.9759 29.595 26.3839 29.547 26.6959C29.499 26.9839 29.439 27.2719 29.367 27.5599C29.271 28.1599 29.055 28.4599 28.719 28.4599C28.287 28.4599 27.927 28.0879 27.639 27.3439C27.375 26.5759 27.219 25.5919 27.171 24.3919C25.035 27.1039 23.055 28.4599 21.231 28.4599C20.127 28.4599 19.035 27.9919 17.955 27.0559C16.899 26.0959 16.371 25.1119 16.371 24.1039C16.371 22.6639 16.899 20.8879 17.955 18.7759C19.011 16.6399 20.379 14.7439 22.059 13.0879C23.739 11.4319 25.323 10.6039 26.811 10.6039ZM28.467 16.9399C28.467 14.7079 28.023 13.5919 27.135 13.5919C26.199 13.5919 25.107 14.2639 23.859 15.6079C22.611 16.9279 21.555 18.4279 20.691 20.1079C19.827 21.7879 19.395 23.1199 19.395 24.1039C19.395 24.5119 19.563 24.8479 19.899 25.1119C20.235 25.3519 20.631 25.4719 21.087 25.4719C22.215 25.4719 23.487 24.7159 24.903 23.2039C26.319 21.6679 27.303 19.8079 27.855 17.6239C27.927 17.2639 28.131 17.0479 28.467 16.9759V16.9399Z" fill="white"/>
<path d="M36.918 22.1959C39.222 18.2839 41.094 15.3799 42.534 13.4839C43.998 11.5639 45.186 10.6039 46.098 10.6039C47.034 10.6039 47.91 11.0959 48.726 12.0799C49.566 13.0639 49.986 14.1079 49.986 15.2119C49.986 16.9399 49.59 19.0519 48.798 21.5479C47.358 26.1559 46.062 28.4599 44.91 28.4599C44.382 28.4599 44.118 28.0999 44.118 27.3799C44.118 26.8759 44.37 25.8559 44.874 24.3199C45.402 22.7599 45.882 21.2359 46.314 19.7479C46.77 18.2359 46.998 17.1079 46.998 16.3639C46.998 15.5959 46.878 15.0319 46.638 14.6719C46.422 14.3119 46.194 14.1319 45.954 14.1319C45.738 14.1319 45.51 14.2039 45.27 14.3479C45.03 14.4919 44.754 14.7319 44.442 15.0679C44.154 15.4039 43.878 15.7399 43.614 16.0759C43.35 16.3879 43.014 16.8439 42.606 17.4439C42.222 18.0439 41.898 18.5599 41.634 18.9919C41.37 19.3999 40.986 19.9999 40.482 20.7919C39.978 21.5839 39.594 22.1839 39.33 22.5919C39.066 22.9999 38.718 23.5519 38.286 24.2479C37.854 24.9439 37.506 25.4839 37.242 25.8679C37.002 26.2519 36.726 26.6719 36.414 27.1279C35.814 28.0159 35.334 28.4599 34.974 28.4599C34.638 28.4599 34.242 28.1959 33.786 27.6679C33.33 27.1159 33.102 26.6359 33.102 26.2279C33.102 26.1079 33.186 25.7839 33.354 25.2559C33.81 23.8639 34.314 22.1479 34.866 20.1079C35.418 18.0439 35.718 15.7039 35.766 13.0879C35.838 11.3359 36.09 10.4599 36.522 10.4599C37.05 10.4599 37.578 10.7359 38.106 11.2879C38.634 11.8399 38.898 12.4519 38.898 13.1239C38.898 13.7719 38.694 15.0439 38.286 16.9399C37.902 18.8119 37.446 20.5639 36.918 22.1959Z" fill="white"/>
<path d="M66.2293 16.5799C66.2293 17.8519 65.5333 18.8959 64.1413 19.7119C62.7733 20.5039 61.2133 20.8999 59.4613 20.8999C57.7333 20.8999 56.1613 20.7079 54.7453 20.3239C54.4093 21.3799 54.2413 22.3279 54.2413 23.1679C54.2413 23.9839 54.4933 24.6199 54.9973 25.0759C55.5253 25.5319 56.3773 25.7599 57.5533 25.7599C58.7533 25.7599 59.9773 25.5559 61.2253 25.1479C62.4973 24.7159 63.1933 24.4999 63.3133 24.4999C63.9373 24.4999 64.2493 24.7399 64.2493 25.2199C64.2493 25.8679 63.5173 26.5759 62.0533 27.3439C60.5893 28.0879 59.1613 28.4599 57.7693 28.4599C55.8973 28.4599 54.3733 27.9079 53.1973 26.8039C52.0213 25.6759 51.4333 24.2599 51.4333 22.5559C51.4333 20.8519 51.8893 19.0759 52.8013 17.2279C53.7133 15.3559 54.8893 13.7839 56.3293 12.5119C57.7693 11.2399 59.1973 10.6039 60.6133 10.6039C62.0293 10.6039 63.3133 11.2759 64.4653 12.6199C65.6413 13.9639 66.2293 15.2839 66.2293 16.5799ZM60.7933 13.4479C59.9053 13.4479 58.9813 13.9159 58.0213 14.8519C57.0613 15.7639 56.2453 16.9039 55.5733 18.2719C56.5333 18.4879 57.6253 18.5959 58.8493 18.5959C60.0733 18.5959 61.1413 18.4039 62.0533 18.0199C62.9653 17.6119 63.4213 17.0839 63.4213 16.4359C63.4213 15.7879 63.1213 15.1279 62.5213 14.4559C61.9453 13.7839 61.3693 13.4479 60.7933 13.4479Z" fill="white"/>
<path d="M97.8935 3.11592C100.702 3.11592 102.826 4.23192 104.266 6.46392C105.706 8.69592 106.426 11.5039 106.426 14.8879C106.426 18.2719 105.586 21.3559 103.906 24.1399C102.25 26.8999 100.33 28.2799 98.1455 28.2799C96.6095 28.2799 95.4815 27.4159 94.7615 25.6879C94.0415 23.9599 93.5735 21.4999 93.3575 18.3079C92.3495 19.7239 91.1975 21.3319 89.9015 23.1319C87.4055 26.5879 85.6535 28.3159 84.6455 28.3159C84.2615 28.3159 83.8175 28.0039 83.3135 27.3799C82.8095 26.7559 82.5575 25.9759 82.5575 25.0399C82.5575 24.0799 82.8815 21.1159 83.5295 16.1479C84.1775 11.1559 84.5015 7.26792 84.5015 4.48392C84.5015 3.59592 84.7655 3.15192 85.2935 3.15192C85.8215 3.15192 86.4335 3.46392 87.1295 4.08792C87.8495 4.71193 88.2095 5.28792 88.2095 5.81592C88.2095 6.31992 87.8015 8.85192 86.9855 13.4119C86.1935 17.9719 85.7015 21.5479 85.5095 24.1399C86.9735 21.6679 88.6175 19.3879 90.4415 17.2999C92.2895 15.1879 93.6095 14.1319 94.4015 14.1319C95.2175 14.1319 95.7815 15.9319 96.0935 19.5319C96.2135 20.8759 96.4415 22.1119 96.7775 23.2399C97.1375 24.3679 97.6175 24.9319 98.2175 24.9319C99.5615 24.9319 100.726 23.8519 101.71 21.6919C102.718 19.5079 103.222 17.0959 103.222 14.4559C103.222 11.5279 102.574 9.27192 101.278 7.68793C100.606 6.84792 99.8615 6.42793 99.0455 6.42793C98.2535 6.42793 97.5695 6.15192 96.9935 5.59992C96.4415 5.04792 96.1655 4.56792 96.1655 4.15992C96.1655 3.46392 96.7415 3.11592 97.8935 3.11592Z" fill="white"/>
<path d="M113.13 5.49192C113.13 5.01192 113.322 4.55592 113.706 4.12392C114.09 3.69192 114.474 3.47592 114.858 3.47592C115.266 3.47592 115.746 3.96792 116.298 4.95192C116.85 5.91192 117.126 6.71593 117.126 7.36393C117.126 7.60393 117.018 7.81992 116.802 8.01192C116.586 8.20392 116.358 8.29992 116.118 8.29992C115.542 8.29992 114.894 7.95192 114.174 7.25592C113.478 6.55992 113.13 5.97193 113.13 5.49192ZM112.95 10.6039C113.406 10.6039 113.838 10.8799 114.246 11.4319C114.654 11.9839 114.858 12.5239 114.858 13.0519C114.858 13.5799 114.51 15.1639 113.814 17.8039C113.118 20.4199 112.242 23.3599 111.186 26.6239C110.778 27.8239 110.262 28.4239 109.638 28.4239C109.302 28.4239 109.014 28.2919 108.774 28.0279C108.534 27.7399 108.414 27.4279 108.414 27.0919C108.414 26.7319 108.498 26.1799 108.666 25.4359C108.858 24.6679 109.122 23.6599 109.458 22.4119C109.818 21.1399 110.094 20.1079 110.286 19.3159C110.502 18.5239 110.718 17.6359 110.934 16.6519C111.15 15.6439 111.318 14.8399 111.438 14.2399C111.582 13.6159 111.738 12.9919 111.906 12.3679C112.242 11.1919 112.59 10.6039 112.95 10.6039Z" fill="white"/>
<path d="M123.472 3.54793C123.472 8.05993 122.536 13.9159 120.664 21.1159C119.464 26.0119 118.624 28.4599 118.144 28.4599C117.808 28.4599 117.412 28.1959 116.956 27.6679C116.524 27.1399 116.308 26.7319 116.308 26.4439C116.308 26.1559 116.656 24.6679 117.352 21.9799C118.048 19.2919 118.744 15.9919 119.44 12.0799C120.136 8.14392 120.484 4.60393 120.484 1.45992C120.484 1.12392 120.532 0.883925 120.628 0.739925C120.724 0.595926 120.928 0.523926 121.24 0.523926C121.552 0.523926 121.996 0.871925 122.572 1.56792C123.172 2.23992 123.472 2.89993 123.472 3.54793Z" fill="white"/>
<path d="M134.78 10.6039C135.596 10.6039 136.364 11.0599 137.084 11.9719C137.804 12.8599 138.164 13.6399 138.164 14.3119C138.164 14.7199 137.972 14.9239 137.588 14.9239C137.324 14.9239 136.916 14.7199 136.364 14.3119C135.812 13.8799 135.248 13.6639 134.672 13.6639C134.096 13.6639 133.184 13.9999 131.936 14.6719C130.712 15.3439 130.1 16.0519 130.1 16.7959C130.1 17.3479 131.204 18.2959 133.412 19.6399C134.252 20.1679 135.008 20.8519 135.68 21.6919C136.376 22.5079 136.724 23.3959 136.724 24.3559C136.724 25.2919 136.064 26.2159 134.744 27.1279C133.448 28.0159 131.924 28.4599 130.172 28.4599C128.444 28.4599 126.908 28.0399 125.564 27.1999C124.244 26.3599 123.584 25.5679 123.584 24.8239C123.584 24.5119 123.656 24.2719 123.8 24.1039C123.968 23.9119 124.172 23.8159 124.412 23.8159C124.652 23.8159 124.988 23.9719 125.42 24.2839C126.716 25.2199 128.06 25.6879 129.452 25.6879C130.868 25.6879 131.888 25.5319 132.512 25.2199C133.136 24.8839 133.448 24.4519 133.448 23.9239C133.448 23.3719 133.1 22.7959 132.404 22.1959C131.708 21.5719 130.94 21.0199 130.1 20.5399C129.284 20.0599 128.528 19.4719 127.832 18.7759C127.136 18.0799 126.788 17.3719 126.788 16.6519C126.788 15.3799 127.784 14.0599 129.776 12.6919C131.792 11.2999 133.46 10.6039 134.78 10.6039Z" fill="white"/>
<path d="M149.964 16.7239C149.964 15.9079 149.832 15.1399 149.568 14.4199C149.304 13.6759 148.92 13.1359 148.416 12.7999C146.76 13.2559 145.332 14.5399 144.132 16.6519C142.956 18.7399 142.368 20.7079 142.368 22.5559C142.368 24.4039 142.824 25.5559 143.736 26.0119C145.464 25.6759 146.928 24.4999 148.128 22.4839C149.352 20.4439 149.964 18.5239 149.964 16.7239ZM140.496 17.0479C141.336 15.1759 142.428 13.6399 143.772 12.4399C145.14 11.2159 146.532 10.6039 147.948 10.6039C149.388 10.6039 150.588 11.2159 151.548 12.4399C152.508 13.6399 152.988 15.1159 152.988 16.8679C152.988 18.5959 152.568 20.3719 151.728 22.1959C150.888 23.9959 149.724 25.4959 148.236 26.6959C146.772 27.8719 145.212 28.4599 143.556 28.4599C142.332 28.4599 141.312 27.8959 140.496 26.7679C139.68 25.6399 139.272 24.2119 139.272 22.4839C139.272 20.7319 139.68 18.9199 140.496 17.0479Z" fill="white"/>
<path d="M158.213 22.1959C160.517 18.2839 162.389 15.3799 163.829 13.4839C165.293 11.5639 166.481 10.6039 167.393 10.6039C168.329 10.6039 169.205 11.0959 170.021 12.0799C170.861 13.0639 171.281 14.1079 171.281 15.2119C171.281 16.9399 170.885 19.0519 170.093 21.5479C168.653 26.1559 167.357 28.4599 166.205 28.4599C165.677 28.4599 165.413 28.0999 165.413 27.3799C165.413 26.8759 165.665 25.8559 166.169 24.3199C166.697 22.7599 167.177 21.2359 167.609 19.7479C168.065 18.2359 168.293 17.1079 168.293 16.3639C168.293 15.5959 168.173 15.0319 167.933 14.6719C167.717 14.3119 167.489 14.1319 167.249 14.1319C167.033 14.1319 166.805 14.2039 166.565 14.3479C166.325 14.4919 166.049 14.7319 165.737 15.0679C165.449 15.4039 165.173 15.7399 164.909 16.0759C164.645 16.3879 164.309 16.8439 163.901 17.4439C163.517 18.0439 163.193 18.5599 162.929 18.9919C162.665 19.3999 162.281 19.9999 161.777 20.7919C161.273 21.5839 160.889 22.1839 160.625 22.5919C160.361 22.9999 160.013 23.5519 159.581 24.2479C159.149 24.9439 158.801 25.4839 158.537 25.8679C158.297 26.2519 158.021 26.6719 157.709 27.1279C157.109 28.0159 156.629 28.4599 156.269 28.4599C155.933 28.4599 155.537 28.1959 155.081 27.6679C154.625 27.1159 154.397 26.6359 154.397 26.2279C154.397 26.1079 154.481 25.7839 154.649 25.2559C155.105 23.8639 155.609 22.1479 156.161 20.1079C156.713 18.0439 157.013 15.7039 157.061 13.0879C157.133 11.3359 157.385 10.4599 157.817 10.4599C158.345 10.4599 158.873 10.7359 159.401 11.2879C159.929 11.8399 160.193 12.4519 160.193 13.1239C160.193 13.7719 159.989 15.0439 159.581 16.9399C159.197 18.8119 158.741 20.5639 158.213 22.1959Z" fill="white"/>
</svg>
